<svg width="13" height="13" viewBox="0 0 13 13" fill="none" xmlns="http://www.w3.org/2000/svg">
<path d="M9.55955 0.190451C9.49929 0.129973 9.42767 0.0820109 9.3488 0.0493255C9.26993 0.0166401 9.18537 -0.000123142 9.1 6.80988e-07H3.9C3.81463 -0.000123142 3.73007 0.0166401 3.6512 0.0493255C3.57233 0.0820109 3.50071 0.129973 3.44045 0.190451L0.190451 3.44045C0.129973 3.50071 0.0820109 3.57233 0.0493255 3.6512C0.0166401 3.73007 -0.000123142 3.81463 6.80988e-07 3.9V9.1C6.80988e-07 9.2729 0.0682507 9.438 0.190451 9.55955L3.44045 12.8096C3.50071 12.87 3.57233 12.918 3.6512 12.9507C3.73007 12.9834 3.81463 13.0001 3.9 13H9.1C9.2729 13 9.438 12.9318 9.55955 12.8096L12.8096 9.55955C12.87 9.49929 12.918 9.42767 12.9507 9.3488C12.9834 9.26993 13.0001 9.18537 13 9.1V3.9C13.0001 3.81463 12.9834 3.73007 12.9507 3.6512C12.918 3.57233 12.87 3.50071 12.8096 3.44045L9.55955 0.190451ZM7.15 9.75H5.85V8.45H7.15V9.75ZM7.15 7.15H5.85V3.25H7.15V7.15Z" fill="#D04646"/>
</svg>
